#!OML:ASF I:\Actors\actors\Patient Classification 2\Patient 1\Session 1\actor1.ASF
:FULLY-SPECIFIED
:DEGREES
670
root -0.641476 18.6916 5.79027 1.09354 -3.55728 -4.82395
lowerback 4.13479 0.583761 1.154
upperback 0.059432 0.854625 0.932479
thorax -2.25412 0.418351 0.25882
lowerneck -8.83257 0.240025 1.69035
upperneck 26.4263 -0.0586858 0.210443
head 9.80956 0.154448 -0.224313
rclavicle -9.29318e-015 -2.38542e-015
rhumerus -7.23924 43.8108 -50.576
rradius 116.154
rwrist 19.101
rhand -18.1308 -27.0416
rfingers 7.12502
rthumb 8.14413 -56.8646
lclavicle -9.29318e-015 -2.38542e-015
lhumerus -30.1984 -23.9979 88.9111
lradius 110.319
lwrist 14.9038
lhand -4.33391 -37.9255
lfingers 7.12502
lthumb 21.4333 -9.09114
rfemur 0 0 0
rtibia 0
rfoot 0 0
rtoes 0
lfemur -4.57689 -5.04246 -9.64963
ltibia 23.7053
lfoot -24.3405 14.7241
ltoes -55.4204
671
root -0.640733 18.6915 5.78911 1.09926 -3.56421 -4.83896
lowerback 3.65767 0.521553 0.91645
upperback 0.381082 0.751003 1.08607
thorax -1.66192 0.371785 0.562008
lowerneck -9.11135 0.327804 1.67135
upperneck 26.2553 0.0892118 0.112961
head 9.80267 0.209428 -0.238671
rclavicle -4.77083e-015 -5.56597e-015
rhumerus -6.29373 44.2501 -49.5064
rradius 115.983
rwrist 19.0269
rhand -17.9458 -27.0415
rfingers 7.12502
rthumb 8.32263 -56.8575
lclavicle -4.77083e-015 -5.56597e-015
lhumerus -29.6009 -23.6912 88.7946
lradius 110.266
lwrist 14.8968
lhand -4.35446 -37.8281
lfingers 7.12502
lthumb 21.4135 -8.99144
rfemur 0 0 0
rtibia 0
rfoot 0 0
rtoes 0
lfemur -4.59876 -4.99968 -9.6292
ltibia 23.7282
lfoot -24.3395 14.7307
ltoes -55.4515
672
root -0.640563 18.6916 5.78783 1.09879 -3.58375 -4.8675
lowerback 3.63658 0.516591 0.921867
upperback 0.391877 0.744225 1.0941
thorax -1.63905 0.368451 0.567806
lowerneck -9.11388 0.338323 1.65679
upperneck 26.2279 0.0863946 0.190974
head 9.79339 0.215036 -0.209259
rclavicle -2.78299e-015 -1.98785e-015
rhumerus -6.2252 44.5931 -49.1687
rradius 116.028
rwrist 18.9179
rhand -17.6801 -26.7501
rfingers 7.12502
rthumb 8.57907 -56.5558
lclavicle -2.78299e-015 -1.98785e-015
lhumerus -29.5104 -23.6486 88.7713
lradius 110.271
lwrist 14.8725
lhand -4.33516 -37.7368
lfingers 7.12502
lthumb 21.4321 -8.9023
rfemur 0 0 0
rtibia 0
rfoot 0 0
rtoes 0
lfemur -4.60976 -4.9461 -9.59303
ltibia 23.7484
lfoot -24.3412 14.7446
ltoes -55.4545
673
root -0.640327 18.6921 5.78621 1.07866 -3.59661 -4.89481
lowerback 3.62663 0.526754 0.931749
upperback 0.425006 0.757544 1.0978
thorax -1.59946 0.375167 0.565668
lowerneck -9.14096 0.315554 1.66544
upperneck 26.1802 0.038625 0.242672
head 9.78121 0.199154 -0.197921
rclavicle -2.83268e-015 3.97569e-016
rhumerus -6.29589 44.666 -49.0766
rradius 116.159
rwrist 18.873
rhand -17.8169 -26.7094
rfingers 7.12502
rthumb 8.44703 -56.5205
lclavicle -2.83268e-015 3.97569e-016
lhumerus -29.3945 -23.6491 88.7364
lradius 110.274
lwrist 14.8751
lhand -4.28982 -37.6577
lfingers 7.12502
lthumb 21.4756 -8.82815
rfemur 0 0 0
rtibia 0
rfoot 0 0
rtoes 0
lfemur -4.59445 -4.95776 -9.5682
ltibia 23.7644
lfoot -24.3624 14.759
ltoes -55.4059
674
root -0.640137 18.6927 5.78441 1.05367 -3.59783 -4.90474
lowerback 3.63221 0.541355 0.935646
upperback 0.457404 0.776583 1.08803
thorax -1.56923 0.384722 0.552657
lowerneck -9.18021 0.290209 1.66929
upperneck 26.1576 -0.0139523 0.301442
head 9.78039 0.181567 -0.183818
rclavicle -4.00054e-015 1.59028e-015
rhumerus -6.4714 44.4937 -49.2161
rradius 116.341
rwrist 18.8805
rhand -18.1892 -26.7488
rfingers 7.12502
rthumb 8.08772 -56.574
lclavicle -4.00054e-015 1.59028e-015
lhumerus -29.2858 -23.6854 88.6912
lradius 110.283
lwrist 14.9178
lhand -4.27543 -37.4993
lfingers 7.12502
lthumb 21.4894 -8.67128
rfemur 0 0 0
rtibia 0
rfoot 0 0
rtoes 0
lfemur -4.57297 -4.99396 -9.56618
ltibia 23.7748
lfoot -24.3751 14.7482
ltoes -55.3477
675
root -0.640828 18.6926 5.78286 1.04463 -3.59134 -4.91171
lowerback 3.63417 0.547529 0.92206
upperback 0.466949 0.784168 1.08839
thorax -1.56075 0.38862 0.560301
lowerneck -9.20177 0.27033 1.5985
upperneck 26.1592 -0.0517751 0.390616
head 9.7849 0.167027 -0.144727
rclavicle -3.6477e-014 5.1684e-015
rhumerus -6.69467 44.1783 -49.4645
rradius 116.589
rwrist 18.8058
rhand -18.2186 -26.5857
rfingers 7.12502
rthumb 8.05936 -56.4121
lclavicle -3.6477e-014 5.1684e-015
lhumerus -29.2068 -23.6991 88.6859
lradius 110.275
lwrist 14.9522
lhand -4.29463 -37.3624
lfingers 7.12502
lthumb 21.471 -8.53229
rfemur 0 0 0
rtibia 0
rfoot 0 0
rtoes 0
lfemur -4.57198 -5.00233 -9.5578
ltibia 23.7777
lfoot -24.3787 14.7119
ltoes -55.3443
676
root -0.642225 18.6918 5.78125 1.05133 -3.58333 -4.93924
lowerback 3.93832 0.585786 1.07844
upperback 0.246975 0.848925 1.00672
thorax -1.95356 0.418082 0.380996
lowerneck -9.06106 0.226853 1.53347
upperneck 26.2958 -0.136348 0.536451
head 9.80666 0.138367 -0.0919961
rclavicle -3.97569e-015 2.78299e-015
rhumerus -7.46817 43.9281 -50.1833
rradius 116.844
rwrist 18.6295
rhand -18.242 -26.6051
rfingers 7.12502
rthumb 8.03674 -56.4323
lclavicle -3.97569e-015 2.78299e-015
lhumerus -29.5239 -23.873 88.7774
lradius 110.319
lwrist 14.9755
lhand -4.32135 -37.3354
lfingers 7.12502
lthumb 21.4453 -8.50233
rfemur 0 0 0
rtibia 0
rfoot 0 0
rtoes 0
lfemur -4.59442 -4.96658 -9.51143
ltibia 23.7771
lfoot -24.3645 14.6507
ltoes -55.3445
677
root -0.643341 18.6912 5.78039 1.06638 -3.58358 -4.97337
lowerback 3.57806 0.55665 0.943308
upperback 0.465092 0.796752 1.11931
thorax -1.53143 0.394933 0.580049
lowerneck -9.28151 0.283981 1.4525
upperneck 26.2545 -0.0248287 0.4648
head 9.83446 0.17436 -0.0907019
rclavicle 3.37934e-015 -1.74931e-014
rhumerus -6.95883 43.5883 -49.9591
rradius 116.842
rwrist 18.3316
rhand -18.2649 -26.8153
rfingers 7.12502
rthumb 8.01467 -56.6433
lclavicle 3.37934e-015 -1.74931e-014
lhumerus -29.1813 -23.666 88.7218
lradius 110.302
lwrist 14.9412
lhand -4.35441 -37.3883
lfingers 7.12502
lthumb 21.4136 -8.55169
rfemur 0 0 0
rtibia 0
rfoot 0 0
rtoes 0
lfemur -4.61945 -4.90501 -9.45609
ltibia 23.7757
lfoot -24.3369 14.5871
ltoes -55.3343
678
root -0.64355 18.6913 5.78136 1.07564 -3.57937 -4.95419
lowerback 3.98376 0.602097 1.1482
upperback 0.121019 0.875819 0.968354
thorax -2.10672 0.429899 0.299741
lowerneck -9.10619 0.23335 1.46628
upperneck 26.604 -0.135864 0.605719
head 9.92668 0.141972 -0.0558962
rclavicle -2.15433e-014 1.15295e-014
rhumerus -7.85303 43.6364 -50.8094
rradius 116.847
rwrist 18.3264
rhand -18.1606 -27.0717
rfingers 7.12502
rthumb 8.11533 -56.8958
lclavicle -2.15433e-014 1.15295e-014
lhumerus -29.7636 -23.9173 88.8259
lradius 110.371
lwrist 14.9374
lhand -4.35447 -37.4093
lfingers 7.12502
lthumb 21.4135 -8.57262
rfemur 0 0 0
rtibia 0
rfoot 0 0
rtoes 0
lfemur -4.62331 -4.88937 -9.47637
ltibia 23.7726
lfoot -24.3376 14.5928
ltoes -55.3916
679
root -0.643396 18.6914 5.78315 1.06976 -3.57447 -4.91973
lowerback 3.95071 0.590785 1.11715
upperback 0.087121 0.859076 0.960203
thorax -2.12339 0.421703 0.309896
lowerneck -9.16459 0.229759 1.34629
upperneck 26.7938 -0.148885 0.71238
head 10.0068 0.137241 0.000944836
rclavicle -1.08338e-014 5.56597e-015
rhumerus -7.87654 43.7844 -50.9245
rradius 116.779
rwrist 18.2634
rhand -18.1241 -27.4013
rfingers 7.12502
rthumb 8.15059 -57.2241
lclavicle -1.08338e-014 5.56597e-015
lhumerus -29.8222 -23.8989 88.8347
lradius 110.364
lwrist 14.9556
lhand -4.33802 -37.4204
lfingers 7.12502
lthumb 21.4293 -8.58557
rfemur 0 0 0
rtibia 0
rfoot 0 0
rtoes 0
lfemur -4.60734 -4.92826 -9.52347
ltibia 23.7704
lfoot -24.3659 14.6621
ltoes -55.4267
